<svg width="15" height="14" viewBox="0 0 15 14" fill="none" xmlns="http://www.w3.org/2000/svg">
<path d="M5.94147 0.845493H5.04013C5.00635 0.845493 4.97257 0.852614 4.94137 0.866479C2.51343 1.95702 0.574898 4.90597 0.00325202 8.37958C-0.0184096 8.51224 0.0664012 8.63853 0.195269 8.66551C1.66496 8.97544 2.73151 10.3137 2.73151 11.8476V13.5002C2.73151 13.6381 2.84092 13.7502 2.9764 13.7502H5.54789C5.683 13.7502 5.79278 13.6381 5.79278 13.5002C5.79278 13.3623 5.683 13.2503 5.54789 13.2503H3.22129V12.0897H5.11356C5.24867 12.0897 5.35845 11.978 5.35845 11.8397C5.35845 11.7014 5.24867 11.5897 5.11356 11.5897H3.21064C3.18494 11.212 3.1027 10.8481 2.9731 10.5059H5.11356C5.24867 10.5059 5.35845 10.3939 5.35845 10.256C5.35845 10.1181 5.24867 10.006 5.11356 10.006H2.74216C2.51159 9.59078 2.20686 9.22165 1.84229 8.92222H4.10317C4.23828 8.92222 4.34806 8.81017 4.34806 8.67226C4.34806 8.53435 4.23865 8.4223 4.10317 8.4223H1.04595C1.04374 8.4223 1.04191 8.42305 1.03971 8.42305C0.87449 8.34772 0.703767 8.28289 0.526068 8.23267C0.581874 7.93062 0.649429 7.63194 0.727264 7.3385H3.4122C3.54731 7.3385 3.65709 7.22645 3.65709 7.08854C3.65709 6.95063 3.54768 6.83858 3.4122 6.83858H0.871553C0.987571 6.4672 1.12048 6.10518 1.26844 5.75479H2.91178C3.04689 5.75479 3.15667 5.64274 3.15667 5.50483C3.15667 5.36692 3.04689 5.25486 2.91178 5.25486H1.49423C2.364 3.44517 3.64828 2.01023 5.09226 1.34392H5.94147C6.07658 1.34392 6.18636 1.23187 6.18636 1.09396C6.18636 0.956046 6.07658 0.843994 5.94147 0.843994V0.845493Z" fill="#12D8DB"/>
<path d="M10.0584 0.866445C10.0271 0.852579 9.99374 0.845459 9.95959 0.845459H9.10341C8.9683 0.845459 8.85852 0.957511 8.85852 1.09542C8.85852 1.23333 8.96793 1.34538 9.10341 1.34538H9.90746C11.3511 2.0117 12.6354 3.44664 13.5055 5.25633H12.0453C11.9102 5.25633 11.8005 5.36838 11.8005 5.50629C11.8005 5.6442 11.9102 5.75625 12.0453 5.75625H13.7309C13.8792 6.10665 14.0122 6.46866 14.1282 6.84005H11.5449C11.4098 6.84005 11.3 6.9521 11.3 7.09001C11.3 7.22792 11.4095 7.33997 11.5449 7.33997H14.2725C14.3503 7.6334 14.4178 7.93208 14.4737 8.23414C14.293 8.2851 14.1194 8.35106 13.9516 8.42788C13.9384 8.42564 13.9248 8.42376 13.9108 8.42376H10.8543C10.7192 8.42376 10.6094 8.53581 10.6094 8.67372C10.6094 8.81163 10.7189 8.92369 10.8543 8.92369H13.1582C12.7932 9.22349 12.4885 9.593 12.2579 10.0086C12.255 10.0086 12.2521 10.0075 12.2487 10.0075H9.84394C9.70883 10.0075 9.59905 10.1195 9.59905 10.2574C9.59905 10.3954 9.70883 10.5074 9.84394 10.5074H12.0274C11.8978 10.8496 11.8155 11.2138 11.7898 11.5912H9.84394C9.70883 11.5912 9.59905 11.7032 9.59905 11.8412C9.59905 11.9791 9.70883 12.0911 9.84394 12.0911H11.7792V13.2517H9.4522C9.31709 13.2517 9.20731 13.3638 9.20731 13.5017C9.20731 13.6396 9.31672 13.7517 9.4522 13.7517H12.0237C12.1588 13.7517 12.2686 13.6396 12.2686 13.5017V11.849C12.2686 10.3155 13.3351 8.97728 14.8048 8.66698C14.9337 8.63962 15.0185 8.51333 14.9965 8.38104C14.4245 4.90743 12.4859 1.95848 10.058 0.867944L10.0584 0.866445Z" fill="#12D8DB"/>
<path d="M8.19839 0H6.83004C6.76028 0 6.69346 0.0303552 6.6472 0.0839452C6.60057 0.137535 6.57891 0.208364 6.58698 0.279193L6.85867 2.61242C6.87336 2.73796 6.97763 2.83278 7.10172 2.83278H7.92633C8.05043 2.83278 8.1547 2.73796 8.16938 2.61242L8.44107 0.279193C8.44915 0.208364 8.42749 0.13716 8.38086 0.0839452C8.3346 0.0303552 8.26778 0 8.19802 0L8.19839 0ZM7.70935 2.33323H7.31944L7.10576 0.499549H7.92266L7.70898 2.33323H7.70935Z" fill="#12D8DB"/>
<path d="M8.32256 8.94461C8.18745 8.92775 8.06555 9.02294 8.04793 9.15972L7.81773 11.4068H7.35329L7.09225 9.3857C7.22589 9.40332 7.36137 9.41343 7.49942 9.41343C9.24923 9.41343 10.673 7.96013 10.673 6.17405V3.92477C10.673 3.78686 10.5632 3.6748 10.4281 3.6748C10.293 3.6748 10.1833 3.78686 10.1833 3.92477V6.17405C10.1833 7.68469 8.97938 8.91351 7.49942 8.91351C6.01945 8.91351 4.81594 7.68469 4.81594 6.17405V3.92477C4.81594 3.78686 4.70654 3.6748 4.57106 3.6748C4.43558 3.6748 4.32617 3.78686 4.32617 3.92477V6.17405C4.32617 7.63522 5.27928 8.87341 6.58412 9.27515L6.89583 11.6893C6.91198 11.8134 7.01552 11.9063 7.13851 11.9063H8.03214C8.15477 11.9063 8.25867 11.8134 8.27483 11.6893L8.5333 9.22493C8.55092 9.08815 8.45656 8.9626 8.32256 8.94461Z" fill="#12D8DB"/>
</svg>
