<svg width="34" height="28" viewBox="0 0 34 28" fill="none" xmlns="http://www.w3.org/2000/svg">
<g opacity="0.5">
<path d="M27.9405 9.82129C27.9405 9.82129 27.6468 8.33472 28.3555 7.45285C28.962 6.69487 29.9877 6.61508 30.7325 6.61928C30.8006 6.61928 31.8881 6.78096 31.9774 6.15316C31.9838 6.10696 31.9902 3.65245 31.986 3.05614C31.986 2.98265 30.5963 2.52912 30.026 1.53598C30.0175 1.52128 29.2918 1.79214 28.9875 1.89502C28.9194 1.91812 29.5387 3.43618 30.9006 3.81832C30.9219 3.82462 30.8943 4.84506 30.8921 5.33218C30.8921 5.39517 30.8708 5.43297 30.8453 5.45397C30.8283 5.47076 29.3684 5.2188 28.1171 6.11536C27.051 6.87964 26.7467 8.4082 26.7488 8.4082" fill="url(#paint0_linear_12_535)"/>
<path d="M20.1921 8.94139C20.1921 8.94139 19.3174 7.20916 20.0644 4.88902C20.7709 2.69066 22.3499 1.49175 24.246 0.779958C25.7867 0.202548 29.1129 0.435611 29.5045 0.557392C29.7151 0.622482 29.713 0.82825 29.7875 1.04872C29.8833 1.33217 30.1174 1.66602 30.1025 1.67022C29.4917 1.792 27.7829 1.96207 26.2464 3.42765C24.9972 4.62026 25.4207 5.86537 25.8463 6.68424C26.5592 8.05742 27.7509 9.45581 28.7171 10.598C30.0216 12.1434 30.4344 12.9056 30.5515 13.1092C31.0452 13.9827 31.6751 15.337 31.7283 16.6388C31.8262 18.9883 30.1791 21.3253 29.9705 21.531C29.5662 21.93 29.2789 19.4083 29.3661 19.297C30.2535 18.182 30.4685 16.8991 30.128 15.7275C29.8216 14.6777 29.1193 13.7769 28.3 12.7754C27.5764 11.8914 26.7614 10.9004 26.0379 10.0458C24.4375 8.15821 23.9077 6.69894 23.8098 5.85697C23.597 4.00506 24.6823 2.79144 25.4697 2.15944C25.908 1.8067 26.2549 1.63452 26.2315 1.63242C25.5995 1.60093 23.6459 1.69122 22.1924 3.78039C20.773 5.81707 21.3561 8.1834 21.654 8.79231C22.3499 10.218 23.7332 11.6794 24.7334 13.1176C25.8378 14.705 26.5316 16.1433 26.6507 16.37C26.987 17.0041 27.4445 17.8923 27.8999 18.8518C28.4362 19.9836 29.0171 21.447 29.5045 22.52C30.0918 23.8134 30.5536 24.6406 30.7579 24.9766C31.69 26.5114 33.1137 27.5697 33.0392 27.5697C31.9432 27.5592 29.1342 27.5613 29.1299 27.5424C28.9193 26.4359 28.6532 25.5393 28.3574 24.6028C27.8786 23.0806 27.353 21.7599 26.838 20.4959C24.5737 14.9402 22.0648 11.7591 20.009 10.745C18.6833 10.0899 16.6446 10.008 14.7229 10.0353C11.6266 10.0794 7.82801 10.26 4.75722 9.75396C2.25249 9.34242 1.17994 7.97344 0.607492 6.87531C0.241465 6.17612 -0.0181586 5.51052 0.00099397 5.52312C0.886268 6.07743 3.62934 7.05798 6.083 7.40233C8.86651 7.79287 12.3565 7.87685 14.7783 8.13091C18.7386 8.54665 20.0963 8.95398 20.0963 8.95398" fill="url(#paint1_linear_12_535)"/>
<path d="M29.7003 18.8226C29.7003 18.8226 29.2024 19.6184 28.3064 20.1643C27.9042 20.4099 29.3449 22.3542 29.362 22.3353C29.4748 22.1989 29.9089 21.6655 30.2047 21.2351C30.2685 21.1406 30.3281 21.0524 30.3728 20.9727" fill="url(#paint2_linear_12_535)"/>
<path d="M24.0141 27.5782H26.6274C26.1018 25.5982 25.889 24.6849 25.7059 24.0298C25.4463 23.0912 24.4483 19.1732 23.3693 17.2289C22.9118 16.4059 21.4626 14.6778 19.4494 13.9492C18.8174 13.7204 17.7215 13.3949 14.8911 13.292C12.7035 13.2122 10.0732 13.2773 8.03663 13.1199C5.75748 12.9435 4.22314 12.3682 4.22314 12.3682C4.97222 13.6679 5.77025 14.8878 7.31096 15.5786C8.57078 16.1434 10.3541 15.9964 12.4247 15.8074C13.9761 15.6668 15.8062 15.5219 17.0469 15.5219C19.1919 15.5219 19.9751 16.303 20.5199 16.7817C20.9433 17.1533 21.1008 17.9197 20.0453 18.4236C19.4303 18.7176 18.9302 18.9675 16.7574 19.4378C14.1357 20.0068 12.2225 20.9243 10.0349 22.7973C8.1175 24.4392 7.36629 27.0092 7.22159 27.5635C7.20669 27.6223 10.2605 27.5908 11.1351 27.5803C11.1713 27.5803 10.8052 27.2864 10.7925 26.7278C10.7882 26.4738 10.8904 26.1546 11.0755 25.7998C12.0438 23.95 13.4972 22.749 14.4911 22.0918C14.723 21.9385 15.5764 21.4178 16.966 20.9621C18.0492 20.6052 19.5941 20.3427 20.539 19.9669C21.4413 19.6079 22.0223 19.0976 22.2542 18.8667C22.2925 18.8289 22.7437 19.9459 23.0437 20.9852C23.2502 21.6991 23.4013 22.4634 23.4672 22.8162C23.4672 22.8162 21.0497 23.0786 17.7534 24.7164C15.9254 25.6255 15.0678 27.1709 14.889 27.5257C14.8826 27.5383 19.7006 27.5782 19.7601 27.5782C19.7921 27.5782 19.5048 26.7635 20.5262 26.0412C21.4349 25.3987 23.2289 24.962 23.8013 24.8339L24.012 27.5803L24.0141 27.5782Z" fill="url(#paint3_linear_12_535)"/>
</g>
<defs>
<linearGradient id="paint0_linear_12_535" x1="8.98371" y1="5.2041" x2="29.0574" y2="5.69154" gradientUnits="userSpaceOnUse">
<stop stop-color="#137DBE"/>
<stop offset="0.44" stop-color="#0AAAA1"/>
<stop offset="0.9" stop-color="#12DDE0"/>
</linearGradient>
<linearGradient id="paint1_linear_12_535" x1="8.78139" y1="13.5187" x2="28.8551" y2="14.0061" gradientUnits="userSpaceOnUse">
<stop stop-color="#137DBE"/>
<stop offset="0.44" stop-color="#0AAAA1"/>
<stop offset="0.9" stop-color="#12DDE0"/>
</linearGradient>
<linearGradient id="paint2_linear_12_535" x1="8.62184" y1="20.0845" x2="28.6956" y2="20.5719" gradientUnits="userSpaceOnUse">
<stop stop-color="#137DBE"/>
<stop offset="0.44" stop-color="#0AAAA1"/>
<stop offset="0.9" stop-color="#12DDE0"/>
</linearGradient>
<linearGradient id="paint3_linear_12_535" x1="8.62398" y1="20.0425" x2="28.6977" y2="20.5299" gradientUnits="userSpaceOnUse">
<stop stop-color="#137DBE"/>
<stop offset="0.44" stop-color="#0AAAA1"/>
<stop offset="0.9" stop-color="#12DDE0"/>
</linearGradient>
</defs>
</svg>
