<svg width="163" height="42" viewBox="0 0 163 42" fill="none" xmlns="http://www.w3.org/2000/svg">
<g clip-path="url(#clip0_2_2380)">
<path d="M43.1597 14.5406C43.1597 14.5406 42.706 12.2442 43.8007 10.8819C44.7376 9.711 46.3221 9.58774 47.4727 9.59423C47.5779 9.59423 49.2577 9.84398 49.3958 8.87418C49.4056 8.80282 49.4155 5.01117 49.4089 4.09002C49.4089 3.9765 47.2623 3.27591 46.3813 1.74173C46.3681 1.71903 45.2471 2.13744 44.777 2.29637C44.6718 2.33205 45.6285 4.67709 47.7324 5.26741C47.7652 5.27714 47.7225 6.85348 47.7192 7.60597C47.7192 7.70327 47.6863 7.76166 47.6469 7.79409C47.6206 7.82004 45.3655 7.43082 43.4325 8.81579C41.7855 9.99642 41.3155 12.3577 41.3187 12.3577" fill="url(#paint0_linear_2_2380)"/>
<path d="M31.1903 13.1814C31.1903 13.1814 29.8392 10.5055 30.9931 6.92142C32.0845 3.52549 34.5237 1.67345 37.4527 0.573907C39.8328 -0.318053 44.9709 0.0419745 45.5758 0.230097C45.9012 0.330645 45.8979 0.648508 46.013 0.989075C46.1609 1.42695 46.5225 1.94266 46.4995 1.94915C45.556 2.13727 42.9163 2.39999 40.5428 4.66395C38.6132 6.50626 39.2673 8.42965 39.9248 9.69461C41.0261 11.8159 42.867 13.976 44.3595 15.7405C46.3746 18.1277 47.0123 19.3051 47.1932 19.6197C47.9558 20.969 48.9289 23.061 49.0111 25.072C49.1623 28.7015 46.6179 32.3115 46.2957 32.6294C45.6711 33.2456 45.2273 29.3502 45.3621 29.1783C46.7329 27.456 47.0649 25.4742 46.539 23.6643C46.0656 22.0426 44.9808 20.6511 43.7151 19.104C42.5974 17.7385 41.3384 16.2075 40.2207 14.8874C37.7486 11.9715 36.93 9.71732 36.7788 8.41667C36.4501 5.55591 38.1266 3.68117 39.343 2.70488C40.0202 2.15998 40.556 1.89401 40.5198 1.89077C39.5435 1.84211 36.5257 1.98158 34.2804 5.20886C32.0878 8.35505 32.9885 12.0105 33.4487 12.9511C34.5237 15.1534 36.6605 17.4109 38.2055 19.6327C39.9117 22.0848 40.9833 24.3065 41.1674 24.6568C41.6868 25.6364 42.3936 27.0084 43.0971 28.4907C43.9255 30.2389 44.823 32.4996 45.5758 34.157C46.4831 36.155 47.1964 37.433 47.512 37.9519C48.9519 40.3229 51.1511 41.9576 51.0361 41.9576C49.3431 41.9414 45.0038 41.9447 44.9972 41.9155C44.6718 40.2062 44.2608 38.8212 43.8039 37.3746C43.0642 35.0231 42.2523 32.9829 41.4567 31.0303C37.959 22.448 34.0832 17.5341 30.9076 15.9675C28.8596 14.9556 25.7103 14.8291 22.7418 14.8712C17.9587 14.9393 12.0908 15.2183 7.34718 14.4366C3.47797 13.8009 1.82114 11.6861 0.936843 9.98977C0.371419 8.90969 -0.0296376 7.8815 -5.14673e-05 7.90096C1.36749 8.75724 5.60488 10.272 9.3952 10.8039C13.6951 11.4072 19.0863 11.5369 22.8273 11.9294C28.9451 12.5716 31.0424 13.2008 31.0424 13.2008" fill="url(#paint1_linear_2_2380)"/>
<path d="M45.8783 28.4454C45.8783 28.4454 45.109 29.6747 43.725 30.518C43.1037 30.8975 45.3293 33.901 45.3556 33.8718C45.5298 33.661 46.2004 32.8371 46.6574 32.1722C46.756 32.0263 46.848 31.89 46.9171 31.7668" fill="url(#paint2_linear_2_2380)"/>
<path d="M37.0945 41.9708H41.1313C40.3193 38.9122 39.9906 37.5013 39.7079 36.4893C39.3068 35.0395 37.7651 28.9871 36.0984 25.9837C35.3916 24.7122 33.1529 22.0428 30.0431 20.9173C29.0667 20.5638 27.3738 20.061 23.0016 19.9021C19.6222 19.7789 15.559 19.8794 12.413 19.6361C8.89227 19.3637 6.52209 18.475 6.52209 18.475C7.67924 20.4827 8.912 22.3672 11.292 23.4343C13.2382 24.3068 15.993 24.0797 19.1915 23.7878C21.588 23.5705 24.4151 23.3467 26.3317 23.3467C29.6453 23.3467 30.8551 24.5533 31.6966 25.2928C32.3508 25.8669 32.5941 27.0508 30.9636 27.8292C30.0135 28.2833 29.241 28.6693 25.8846 29.3958C21.8346 30.2748 18.8792 31.6922 15.4999 34.5854C12.5379 37.1218 11.3775 41.0919 11.154 41.9481C11.131 42.039 15.8483 41.9903 17.1994 41.9741C17.2553 41.9741 16.6899 41.52 16.6701 40.6572C16.6636 40.2648 16.8214 39.7718 17.1074 39.2236C18.6031 36.3661 20.8484 34.5108 22.3836 33.4956C22.7419 33.2588 24.0601 32.4544 26.2068 31.7506C27.88 31.1992 30.2666 30.7938 31.7262 30.2132C33.1201 29.6585 34.0175 28.8704 34.3758 28.5136C34.435 28.4552 35.1319 30.1807 35.5954 31.7863C35.9143 32.8891 36.1477 34.0697 36.2496 34.6146C36.2496 34.6146 32.5152 35.02 27.4231 37.55C24.5992 38.9544 23.2744 41.3416 22.9983 41.8898C22.9884 41.9092 30.431 41.9708 30.523 41.9708C30.5724 41.9708 30.1286 40.7124 31.7065 39.5966C33.1102 38.6041 35.8814 37.9295 36.7657 37.7316L37.0912 41.9741L37.0945 41.9708Z" fill="url(#paint3_linear_2_2380)"/>
<path d="M68.7122 32.9864H56.8777C56.8777 32.9864 55.05 35.2309 54.8297 35.5779C54.5897 36.0839 54.8987 36.2007 55.0861 36.2007C55.2735 36.2007 63.8535 36.285 68.7122 36.2007C73.5742 36.1163 73.1304 32.8015 73.1304 32.8015V30.5797C73.1304 30.5797 73.4295 27.5665 70.5038 26.9697C70.438 26.9567 62.7358 26.9437 60.1355 26.934C59.8626 26.934 59.3597 26.6388 59.3761 25.2214C59.3893 24.0538 59.7837 23.6905 59.9382 23.59C59.9744 23.5673 70.9443 23.5575 72.5288 23.5543C72.6406 23.5543 74.3599 21.3552 74.6754 20.9433C74.7017 20.9108 74.5571 20.6254 74.4848 20.4892C74.465 20.4503 61.3617 20.4632 58.5214 20.4665C58.3472 20.4665 57.5122 20.5832 56.3682 22.0363C55.9573 22.5618 55.8751 23.1521 55.8652 23.444C55.8619 23.5478 55.7929 25.9415 55.8455 26.441C55.9606 27.5438 56.4799 28.3352 57.1013 28.8087C57.7785 29.3245 58.5608 29.5126 58.9882 29.5774C59.1624 29.6034 66.4965 29.5645 68.3637 29.5774C69.3631 29.5839 69.5866 30.2359 69.6326 30.6024C69.6458 30.7062 69.682 31.5463 69.6589 31.9939C69.6096 33.0188 68.7089 32.9831 68.7089 32.9831" fill="white"/>
<path d="M75.3526 35.8925C75.3625 36.1876 75.3526 23.6094 75.3526 23.6094L77.7656 20.4664C77.7656 20.4664 85.8163 20.4762 88.9491 20.4697C90.7539 20.4664 91.8584 21.0957 92.7164 22.432C93.4002 23.4959 93.3608 25.7695 93.1898 27.9946C92.9794 30.7256 90.3101 31.2413 89.5409 31.3354C89.4258 31.3484 82.9596 31.3873 81.4408 31.397L81.4605 28.3287C81.4605 28.3287 86.8156 28.4162 88.0944 28.3514C88.6401 28.3254 89.4192 28.2378 89.7184 26.8821C90.1063 25.1241 89.5573 23.5672 88.0714 23.5445C85.4744 23.5023 78.8931 23.5672 78.8931 23.5672V35.7595C78.8931 35.7595 78.88 36.2428 78.5085 36.2493C78.1403 36.259 76.5131 36.2979 75.9181 36.2947C75.3264 36.2914 75.3494 35.8925 75.3494 35.8925" fill="white"/>
<path d="M95.4088 20.8654C95.4088 20.8654 95.4384 35.7465 95.4515 35.9606C95.4647 36.1714 95.8066 36.2071 95.8066 36.2071H98.5745C98.5745 36.2071 98.8737 36.1552 98.9723 35.8957C99.0249 35.7303 99.0545 20.8654 99.0545 20.8654C99.0545 20.8654 99.0413 20.5021 98.8671 20.4989C98.6896 20.4989 95.6817 20.4924 95.6389 20.4989C95.4515 20.5572 95.4088 20.8654 95.4088 20.8654Z" fill="white"/>
<path d="M109.577 20.9174C109.577 20.9174 109.607 35.7985 109.62 36.0093C109.633 36.2202 109.975 36.2591 109.975 36.2591H112.743C112.743 36.2591 113.042 36.2072 113.141 35.9477C113.19 35.7791 113.223 20.9174 113.223 20.9174C113.223 20.9174 113.21 20.5541 113.036 20.5509C112.858 20.5509 109.85 20.5444 109.807 20.5509C109.62 20.6092 109.577 20.9174 109.577 20.9174Z" fill="white"/>
<path d="M115.8 20.8978C115.8 20.8978 115.83 35.779 115.843 35.9931C115.856 36.2039 116.198 36.2428 116.198 36.2428H118.966C118.966 36.2428 119.265 36.1909 119.364 35.9314C119.416 35.7628 119.449 20.8978 119.449 20.8978C119.449 20.8978 119.436 20.5346 119.262 20.5313C119.084 20.5313 116.076 20.5248 116.034 20.5313C115.846 20.5897 115.803 20.8978 115.803 20.8978H115.8Z" fill="white"/>
<path d="M141.326 22.0461C141.096 21.8255 139.877 20.5541 139.772 20.5054C139.749 20.4957 139.683 20.486 139.594 20.4795H137.927C137.898 20.4957 137.832 20.5379 137.822 20.6709C137.694 22.4094 137.891 32.5777 137.891 32.5777C137.868 33.048 137.697 33.0545 137.556 33.0091C137.033 32.8534 134.196 28.7374 131.681 25.575C130.011 23.47 128.542 21.472 127.773 20.7098C127.664 20.6027 127.526 20.5541 127.405 20.5346H126.688C126.211 20.5379 125.468 20.5444 125.353 20.5411C125.268 20.5411 124.479 20.5411 123.719 20.5379C122.98 20.5379 123.019 20.5346 122.999 20.5379C121.875 20.953 122.023 21.858 122.023 21.858C122.03 24.576 122.053 35.8147 122.063 36.0029C122.076 36.2137 122.408 36.2494 122.408 36.2494H125.071C125.071 36.2494 125.357 36.1975 125.455 35.938C125.488 35.8212 125.455 28.4488 125.455 24.0733C125.455 23.7522 125.583 23.5122 125.896 23.7035C125.968 23.7457 125.998 23.8333 126.09 23.9273C126.241 24.0798 132.063 31.8447 134.466 34.7509C135.337 35.805 135.741 36.1488 136.228 36.1585C136.261 36.1585 139.518 36.2429 139.551 36.2396C139.61 36.2364 141.195 34.7833 141.326 34.5984C141.379 34.5238 141.333 22.0396 141.333 22.0396L141.326 22.0461Z" fill="white"/>
<path d="M111.806 26.6908H98.7356V29.6618H111.806V26.6908Z" fill="white"/>
<path d="M142.582 20.4795C142.582 20.4795 142.405 20.6384 142.582 20.9368C142.816 21.1768 148.457 26.9762 148.457 26.9762H151.31L152.106 26.2043L146.478 20.4795" fill="#0AAAA1"/>
<path d="M162.921 20.4795C162.921 20.4795 163.099 20.6384 162.921 20.9368C162.688 21.1768 157.053 26.9762 157.053 26.9762H154.203L153.407 26.2043L159.029 20.4795" fill="#12DDE0"/>
<path d="M162.921 36.499C162.921 36.499 163.099 36.3336 162.921 36.0287C162.688 35.779 157.047 29.798 157.047 29.798H154.193L153.398 30.5959L159.026 36.5023" fill="#14C4EC"/>
<path d="M142.582 36.499C142.582 36.499 142.405 36.3336 142.582 36.0287C142.816 35.779 148.45 29.798 148.45 29.798H151.3L152.096 30.5959L146.475 36.5023" fill="#137DBE"/>
</g>
<defs>
<linearGradient id="paint0_linear_2_2380" x1="13.8759" y1="7.40812" x2="44.885" y2="8.16109" gradientUnits="userSpaceOnUse">
<stop stop-color="#137DBE"/>
<stop offset="0.44" stop-color="#0AAAA1"/>
<stop offset="0.9" stop-color="#12DDE0"/>
</linearGradient>
<linearGradient id="paint1_linear_2_2380" x1="13.5636" y1="20.2522" x2="44.5727" y2="21.0052" gradientUnits="userSpaceOnUse">
<stop stop-color="#137DBE"/>
<stop offset="0.44" stop-color="#0AAAA1"/>
<stop offset="0.9" stop-color="#12DDE0"/>
</linearGradient>
<linearGradient id="paint2_linear_2_2380" x1="13.317" y1="30.3948" x2="44.3261" y2="31.1478" gradientUnits="userSpaceOnUse">
<stop stop-color="#137DBE"/>
<stop offset="0.44" stop-color="#0AAAA1"/>
<stop offset="0.9" stop-color="#12DDE0"/>
</linearGradient>
<linearGradient id="paint3_linear_2_2380" x1="13.3203" y1="30.3299" x2="44.3294" y2="31.0829" gradientUnits="userSpaceOnUse">
<stop stop-color="#137DBE"/>
<stop offset="0.44" stop-color="#0AAAA1"/>
<stop offset="0.9" stop-color="#12DDE0"/>
</linearGradient>
<clipPath id="clip0_2_2380">
<rect width="163" height="42" fill="white"/>
</clipPath>
</defs>
</svg>
