<svg width="16" height="16" viewBox="0 0 16 16" fill="none" xmlns="http://www.w3.org/2000/svg">
<path d="M9.36494 3.20574L8.93693 2H7.06307L6.63506 3.20574C6.25924 3.30492 5.90431 3.45629 5.57547 3.63897L4.42192 3.09091L3.09091 4.42192L3.63897 5.57547C3.45629 5.90431 3.30492 6.25924 3.20574 6.63506L2 7.06307V8.93693L3.20574 9.36494C3.30492 9.74076 3.45629 10.0957 3.63897 10.4245L3.09091 11.5781L4.42192 12.9091L5.57547 12.361C5.90431 12.5437 6.25924 12.6951 6.63506 12.7943L7.06307 14H8.93693L9.36494 12.7943C9.74076 12.6951 10.0957 12.5437 10.4245 12.361L11.5781 12.9091L12.9091 11.5781L12.361 10.4245C12.5437 10.0957 12.6951 9.74076 12.7943 9.36494L14 8.93693V7.06307L12.7943 6.63506C12.6951 6.25924 12.5437 5.90431 12.361 5.57547L12.9091 4.42192L11.5781 3.09091L10.4245 3.63897C10.0957 3.45629 9.74076 3.30492 9.36494 3.20574Z" stroke="#2DA2EA" stroke-linecap="round" stroke-linejoin="round"/>
<path d="M8 10C9.10457 10 10 9.10457 10 8C10 6.89543 9.10457 6 8 6C6.89543 6 6 6.89543 6 8C6 9.10457 6.89543 10 8 10Z" stroke="#2DA2EA" stroke-linecap="round" stroke-linejoin="round"/>
</svg>
