<svg width="14" height="14" viewBox="0 0 14 14" fill="none" xmlns="http://www.w3.org/2000/svg">
<g clip-path="url(#clip0_2314_601)">
<path fill-rule="evenodd" clip-rule="evenodd" d="M7.6651 0.371L13.84 9.121C13.9817 9.32137 14.0325 9.57337 13.9791 9.81487C13.9257 10.0555 13.7735 10.262 13.5591 10.3845L7.4341 13.8845C7.30022 13.9615 7.14972 14 7.0001 14C6.85047 14 6.69997 13.9615 6.5661 13.8845L0.441097 10.3845C0.228472 10.2638 0.0762219 10.0573 0.0219719 9.81837C-0.0322781 9.5795 0.0167219 9.3275 0.156722 9.12625L6.23185 0.37625C6.3946 0.14175 6.66147 0.000875 6.94672 0H6.95022C7.23547 0 7.50147 0.13825 7.6651 0.371ZM7.8751 3.70213V11.6174L11.8555 9.34237L7.8751 3.70213Z" fill="#19D9DD"/>
</g>
<defs>
<clipPath id="clip0_2314_601">
<rect width="14" height="14" fill="white"/>
</clipPath>
</defs>
</svg>
