<svg width="118" height="20" viewBox="0 0 118 20" fill="none" xmlns="http://www.w3.org/2000/svg">
<path d="M41.3147 14.2949H31.7006C31.7006 14.2949 30.2182 16.1412 30.0376 16.4281C29.8437 16.8425 30.0934 16.9408 30.2448 16.9408C30.3962 16.9408 37.367 17.0099 41.3147 16.9408C45.2623 16.8717 44.9036 14.1435 44.9036 14.1435V12.3158C44.9036 12.3158 45.1454 9.83454 42.7704 9.34308C42.7173 9.33245 36.4611 9.32183 34.3465 9.31386C34.126 9.31386 33.7169 9.07211 33.7302 7.90589C33.7408 6.94421 34.0596 6.64668 34.1871 6.56433C34.2164 6.54573 43.1291 6.53776 44.4148 6.53776C44.5052 6.53776 45.9025 4.726 46.1575 4.38861C46.1788 4.36205 46.0619 4.12827 46.0035 4.01404C45.9875 3.98216 35.3427 3.99279 33.0368 3.99544C32.8934 3.99544 32.216 4.09108 31.2888 5.28918C30.9541 5.7222 30.8904 6.20569 30.8797 6.44744C30.8771 6.53245 30.8213 8.50361 30.8638 8.91537C30.9594 9.82391 31.3792 10.4748 31.8839 10.8653C32.4338 11.2903 33.0687 11.4444 33.4167 11.5002C33.5575 11.5241 39.5162 11.4869 41.0331 11.5002C41.846 11.5055 42.0266 12.0421 42.0638 12.3423C42.0744 12.43 42.1036 13.1207 42.085 13.49C42.0452 14.3321 41.312 14.3055 41.312 14.3055" fill="white"/>
<path d="M46.7101 16.6831C46.7181 16.9275 46.7101 6.5723 46.7101 6.5723L48.6706 3.98482C48.6706 3.98482 55.211 3.99279 57.756 3.98747C59.2224 3.98482 60.1203 4.50285 60.8164 5.60266C61.3716 6.47932 61.3397 8.34953 61.2016 10.1825C61.0315 12.4326 58.8611 12.8577 58.2369 12.9321C58.1439 12.9427 52.8892 12.9746 51.6566 12.9826L51.6725 10.4562C51.6725 10.4562 56.0213 10.5279 57.0627 10.4748C57.5063 10.4535 58.1412 10.3818 58.383 9.26604C58.6991 7.81822 58.2528 6.53776 57.0441 6.51651C54.9348 6.48197 49.5871 6.5351 49.5871 6.5351V16.5742C49.5871 16.5742 49.5765 16.9727 49.2763 16.978C48.9761 16.986 47.6532 17.0178 47.1723 17.0152C46.6915 17.0125 46.7101 16.6858 46.7101 16.6858" fill="white"/>
<path d="M63 4.31157C63 4.31157 63.0239 16.5636 63.0346 16.7389C63.0452 16.9142 63.3241 16.9435 63.3241 16.9435H65.5716C65.5716 16.9435 65.8133 16.901 65.8957 16.6884C65.9382 16.5503 65.9647 4.31157 65.9647 4.31157C65.9647 4.31157 65.9541 4.01138 65.8107 4.00872C65.6672 4.00872 63.2232 4.00341 63.1886 4.00872C63.0372 4.05654 63 4.31157 63 4.31157Z" fill="white"/>
<path d="M74.5082 4.35408C74.5082 4.35408 74.5321 16.6061 74.5427 16.7814C74.5534 16.9568 74.8323 16.986 74.8323 16.986H77.0798C77.0798 16.986 77.3215 16.9435 77.4039 16.7309C77.4464 16.5928 77.4703 4.35408 77.4703 4.35408C77.4703 4.35408 77.4596 4.05389 77.3162 4.05124C77.1727 4.05124 74.7287 4.04592 74.6942 4.05124C74.5428 4.09905 74.5056 4.35408 74.5056 4.35408H74.5082Z" fill="white"/>
<path d="M79.5636 4.33814C79.5636 4.33814 79.5876 16.5901 79.5982 16.7655C79.6088 16.9408 79.8877 16.97 79.8877 16.97H82.1352C82.1352 16.97 82.3769 16.9275 82.4593 16.715C82.5018 16.5769 82.5284 4.33814 82.5284 4.33814C82.5284 4.33814 82.5177 4.03795 82.3743 4.03529C82.2308 4.03529 79.7868 4.02998 79.7523 4.03529C79.6008 4.08311 79.5636 4.33814 79.5636 4.33814Z" fill="white"/>
<path d="M100.301 5.28388C100.115 5.10323 99.1238 4.0539 99.0362 4.01671C99.0176 4.00874 98.9644 4.00077 98.8927 3.99545H97.5379C97.514 4.00874 97.4608 4.04593 97.4529 4.15485C97.3466 5.58673 97.5086 13.9575 97.5086 13.9575C97.49 14.3454 97.3519 14.348 97.235 14.3135C96.81 14.1833 94.5041 10.7962 92.4639 8.1928C91.1064 6.46073 89.9136 4.81367 89.2866 4.18672C89.199 4.09906 89.0874 4.05921 88.9864 4.04327H88.4047C88.0168 4.04593 87.4138 4.05124 87.3208 4.04858C87.2517 4.04858 86.6115 4.04858 85.9925 4.04593C85.3921 4.04593 85.424 4.04327 85.4081 4.04593C84.4942 4.38862 84.6164 5.13246 84.6164 5.13246C84.6217 7.36927 84.6403 16.6247 84.6483 16.7788C84.6589 16.9541 84.9272 16.9833 84.9272 16.9833H87.0923C87.0923 16.9833 87.3261 16.9408 87.4031 16.7283C87.4297 16.6327 87.4031 10.5624 87.4031 6.96016C87.4031 6.69716 87.5067 6.49792 87.7591 6.65732C87.8176 6.69451 87.8415 6.76358 87.9185 6.84062C88.0434 6.96548 92.772 13.3598 94.7219 15.7533C95.4286 16.6194 95.758 16.9063 96.1512 16.9143C96.1777 16.9143 98.8236 16.9833 98.8502 16.9807C98.898 16.978 100.186 15.7826 100.293 15.6285C100.335 15.5674 100.298 5.28919 100.298 5.28919L100.301 5.28388Z" fill="white"/>
<path d="M76.32 9.10931H65.7018V11.556H76.32V9.10931Z" fill="white"/>
<path d="M101.321 3.99545C101.321 3.99545 101.175 4.12562 101.321 4.37268C101.512 4.57192 106.092 9.34574 106.092 9.34574H108.411L109.057 8.71083L104.485 3.99811" fill="#0AAAA1"/>
<path d="M117.845 3.99545C117.845 3.99545 117.991 4.12562 117.845 4.37268C117.653 4.57192 113.079 9.34574 113.079 9.34574H110.762L110.117 8.71083L114.683 3.99811" fill="#18D9DC"/>
<path d="M117.845 17.1852C117.845 17.1852 117.991 17.0497 117.845 16.7974C117.653 16.5928 113.073 11.6676 113.073 11.6676H110.754L110.109 12.3237L114.678 17.1852" fill="#14C4EC"/>
<path d="M101.321 17.1852C101.321 17.1852 101.175 17.0497 101.321 16.7974C101.512 16.5928 106.087 11.6676 106.087 11.6676H108.403L109.049 12.3237L104.482 17.1852" fill="#137DBE"/>
<path d="M20.2765 6.9247C20.2765 6.9247 20.0634 5.83129 20.5777 5.18266C21.0178 4.62515 21.7622 4.56646 22.3027 4.56955C22.3522 4.56955 23.1413 4.68847 23.2062 4.22671C23.2108 4.19273 23.2154 2.38738 23.2124 1.94878C23.2124 1.89473 22.2039 1.56115 21.79 0.830669C21.7838 0.819859 21.2572 1.01908 21.0364 1.09475C20.9869 1.11174 21.4363 2.22831 22.4247 2.50938C22.4402 2.51402 22.4201 3.26457 22.4186 3.62286C22.4186 3.66919 22.4031 3.69699 22.3846 3.71244C22.3722 3.72479 21.3128 3.53947 20.4047 4.19891C19.631 4.76105 19.4102 5.88534 19.4117 5.88534" fill="url(#paint0_linear_40_16013)"/>
<path d="M14.6536 6.27762C14.6536 6.27762 14.0188 5.00353 14.5609 3.29702C15.0736 1.68008 16.2195 0.798249 17.5956 0.274713C18.7137 -0.149985 21.1275 0.0214388 21.4117 0.111011C21.5646 0.158886 21.563 0.310233 21.6171 0.47239C21.6866 0.680878 21.8564 0.926431 21.8456 0.92952C21.4024 1.01909 20.1623 1.14418 19.0473 2.22214C18.1407 3.09934 18.448 4.01514 18.7569 4.61744C19.2743 5.62745 20.1391 6.65599 20.8403 7.49612C21.7869 8.63276 22.0865 9.19336 22.1715 9.34317C22.5298 9.98562 22.9869 10.9817 23.0255 11.9392C23.0966 13.6674 21.9012 15.3862 21.7499 15.5376C21.4564 15.831 21.248 13.9762 21.3113 13.8944C21.9553 13.0743 22.1113 12.1307 21.8642 11.269C21.6418 10.4968 21.1321 9.83427 20.5376 9.09761C20.0125 8.44744 19.421 7.7185 18.8959 7.08995C17.7346 5.70158 17.35 4.62825 17.279 4.00896C17.1245 2.64684 17.9122 1.75421 18.4836 1.28935C18.8017 1.0299 19.0534 0.903265 19.0364 0.901721C18.5778 0.878556 17.1601 0.944963 16.1053 2.4816C15.0752 3.97962 15.4983 5.72011 15.7145 6.16797C16.2195 7.21659 17.2234 8.29146 17.9492 9.34934C18.7507 10.5169 19.2542 11.5748 19.3407 11.7415C19.5847 12.2079 19.9167 12.8612 20.2472 13.567C20.6364 14.3994 21.058 15.4758 21.4117 16.265C21.8379 17.2163 22.173 17.8248 22.3213 18.0719C22.9977 19.2008 24.0309 19.9791 23.9768 19.9791C23.1815 19.9714 21.1429 19.973 21.1399 19.9591C20.987 19.1452 20.7939 18.4857 20.5793 17.797C20.2318 16.6773 19.8503 15.7059 19.4766 14.7762C17.8334 10.6883 16.0126 8.35015 14.5207 7.60422C13.5586 7.12238 12.0791 7.06215 10.6846 7.08223C8.43753 7.11466 5.68086 7.24748 3.45236 6.87529C1.63465 6.57259 0.856294 5.56567 0.440863 4.75798C0.175233 4.24371 -0.0131779 3.75414 0.000721333 3.76341C0.643173 4.17112 2.63385 4.89233 4.41449 5.14561C6.4345 5.43286 8.96725 5.49463 10.7247 5.6815C13.5988 5.98728 14.5841 6.28689 14.5841 6.28689" fill="url(#paint1_linear_40_16013)"/>
<path d="M21.5537 13.5453C21.5537 13.5453 21.1923 14.1307 20.5422 14.5322C20.2503 14.7129 21.2958 16.143 21.3082 16.1291C21.39 16.0287 21.7051 15.6364 21.9197 15.3198C21.966 15.2503 22.0093 15.1855 22.0417 15.1268" fill="url(#paint2_linear_40_16013)"/>
<path d="M17.4272 19.9853H19.3237C18.9422 18.529 18.7878 17.8572 18.655 17.3754C18.4666 16.685 17.7423 13.8033 16.9593 12.3732C16.6272 11.7678 15.5755 10.4968 14.1146 9.9609C13.6559 9.79257 12.8606 9.55319 10.8066 9.47752C9.21898 9.41884 7.31015 9.46671 5.8322 9.35088C4.1782 9.22116 3.06472 8.798 3.06472 8.798C3.60833 9.75396 4.18747 10.6512 5.30558 11.1593C6.21984 11.5748 7.51401 11.4666 9.01666 11.3277C10.1425 11.2242 11.4706 11.1176 12.371 11.1176C13.9277 11.1176 14.496 11.6921 14.8914 12.0442C15.1987 12.3176 15.313 12.8813 14.547 13.2519C14.1007 13.4681 13.7378 13.6519 12.161 13.9978C10.2583 14.4164 8.86995 15.0913 7.28235 16.4688C5.89089 17.6765 5.34573 19.5668 5.24072 19.9745C5.22991 20.0177 7.44606 19.9946 8.08079 19.9869C8.10704 19.9869 7.84141 19.7706 7.83214 19.3598C7.82906 19.173 7.90318 18.9382 8.03754 18.6772C8.74023 17.3167 9.79502 16.4333 10.5162 15.9499C10.6846 15.8372 11.3039 15.4542 12.3123 15.1191C13.0984 14.8565 14.2196 14.6635 14.9053 14.387C15.5601 14.1229 15.9817 13.7477 16.15 13.5778C16.1778 13.55 16.5052 14.3716 16.723 15.136C16.8728 15.6611 16.9824 16.2233 17.0303 16.4827C17.0303 16.4827 15.2759 16.6758 12.8837 17.8804C11.5571 18.5491 10.9348 19.6857 10.805 19.9467C10.8004 19.956 14.2968 19.9853 14.3401 19.9853C14.3632 19.9853 14.1547 19.3861 14.896 18.8548C15.5555 18.3823 16.8574 18.061 17.2728 17.9668L17.4257 19.9869L17.4272 19.9853Z" fill="url(#paint3_linear_40_16013)"/>
<defs>
<linearGradient id="paint0_linear_40_16013" x1="6.51942" y1="3.52866" x2="21.0873" y2="3.87768" gradientUnits="userSpaceOnUse">
<stop stop-color="#137DBE"/>
<stop offset="0.44" stop-color="#0AAAA1"/>
<stop offset="0.9" stop-color="#12DDE0"/>
</linearGradient>
<linearGradient id="paint1_linear_40_16013" x1="6.37273" y1="9.64432" x2="20.9406" y2="9.99334" gradientUnits="userSpaceOnUse">
<stop stop-color="#137DBE"/>
<stop offset="0.44" stop-color="#0AAAA1"/>
<stop offset="0.9" stop-color="#12DDE0"/>
</linearGradient>
<linearGradient id="paint2_linear_40_16013" x1="6.25686" y1="14.4735" x2="20.8248" y2="14.8225" gradientUnits="userSpaceOnUse">
<stop stop-color="#137DBE"/>
<stop offset="0.44" stop-color="#0AAAA1"/>
<stop offset="0.9" stop-color="#12DDE0"/>
</linearGradient>
<linearGradient id="paint3_linear_40_16013" x1="6.25845" y1="14.4426" x2="20.8263" y2="14.7916" gradientUnits="userSpaceOnUse">
<stop stop-color="#137DBE"/>
<stop offset="0.44" stop-color="#0AAAA1"/>
<stop offset="0.9" stop-color="#12DDE0"/>
</linearGradient>
</defs>
</svg>
